<svg width="17" height="21" viewBox="0 0 17 21" fill="none" xmlns="http://www.w3.org/2000/svg">
<path d="M2.5 21C1.95 21 1.47917 20.8042 1.0875 20.4125C0.695833 20.0208 0.5 19.55 0.5 19V9C0.5 8.45 0.695833 7.97917 1.0875 7.5875C1.47917 7.19583 1.95 7 2.5 7H3.5V5C3.5 3.61667 3.9875 2.4375 4.9625 1.4625C5.9375 0.4875 7.11667 0 8.5 0C9.88333 0 11.0625 0.4875 12.0375 1.4625C13.0125 2.4375 13.5 3.61667 13.5 5V7H14.5C15.05 7 15.5208 7.19583 15.9125 7.5875C16.3042 7.97917 16.5 8.45 16.5 9V19C16.5 19.55 16.3042 20.0208 15.9125 20.4125C15.5208 20.8042 15.05 21 14.5 21H2.5ZM2.5 19H14.5V9H2.5V19ZM8.5 16C9.05 16 9.52083 15.8042 9.9125 15.4125C10.3042 15.0208 10.5 14.55 10.5 14C10.5 13.45 10.3042 12.9792 9.9125 12.5875C9.52083 12.1958 9.05 12 8.5 12C7.95 12 7.47917 12.1958 7.0875 12.5875C6.69583 12.9792 6.5 13.45 6.5 14C6.5 14.55 6.69583 15.0208 7.0875 15.4125C7.47917 15.8042 7.95 16 8.5 16ZM5.5 7H11.5V5C11.5 4.16667 11.2083 3.45833 10.625 2.875C10.0417 2.29167 9.33333 2 8.5 2C7.66667 2 6.95833 2.29167 6.375 2.875C5.79167 3.45833 5.5 4.16667 5.5 5V7Z" fill="#979797"/>
</svg>
